<?xml version="1.0" encoding="UTF-8" standalone="no"?><svg xmlns="http://www.w3.org/2000/svg" xmlns:xlink="http://www.w3.org/1999/xlink" contentStyleType="text/css" height="1985px" preserveAspectRatio="none" style="width:2034px;height:1985px;background:#FFFFFF;" version="1.1" viewBox="0 0 2034 1985" width="2034px" zoomAndPan="magnify"><defs/><g><g id="elem_Vue_QT_1"><rect fill="#F1F1F1" height="82.4375" style="stroke:#181818;stroke-width:0.5;" width="436" x="7" y="276"/><text fill="#000000" font-family="sans-serif" font-size="14" lengthAdjust="spacing" textLength="69" x="190.5" y="292.5332">Vue_QT_1</text><line style="stroke:#181818;stroke-width:0.5;" x1="8" x2="442" y1="297.6094" y2="297.6094"/><text fill="#000000" font-family="sans-serif" font-size="14" lengthAdjust="spacing" textLength="122" x="13" y="316.1426">Choix de la Version</text><text fill="#000000" font-family="sans-serif" font-size="14" lengthAdjust="spacing" textLength="157" x="13" y="333.752">Paramétrage de la partie</text><text fill="#000000" font-family="sans-serif" font-size="14" lengthAdjust="spacing" textLength="424" x="13" y="351.3613">Affichage des informations sur la dernière partie (scores, victoire...)</text></g><g id="elem_Vue_QT_2"><rect fill="#F1F1F1" height="135.2656" style="stroke:#181818;stroke-width:0.5;" width="288" x="780" y="972"/><text fill="#000000" font-family="sans-serif" font-size="14" lengthAdjust="spacing" textLength="69" x="889.5" y="988.5332">Vue_QT_2</text><line style="stroke:#181818;stroke-width:0.5;" x1="781" x2="1067" y1="993.6094" y2="993.6094"/><text fill="#000000" font-family="sans-serif" font-size="14" lengthAdjust="spacing" textLength="147" x="786" y="1012.1426">Le joueur peut piocher,</text><text fill="#000000" font-family="sans-serif" font-size="14" lengthAdjust="spacing" textLength="157" x="786" y="1029.752">choisir une carte à jouer,</text><text fill="#000000" font-family="sans-serif" font-size="14" lengthAdjust="spacing" textLength="154" x="786" y="1047.3613">Revendiquer une borne,</text><text fill="#000000" font-family="sans-serif" font-size="14" lengthAdjust="spacing" textLength="103" x="786" y="1064.9707">ou finir son tour.</text><text fill="#000000" font-family="sans-serif" font-size="14" lengthAdjust="spacing" textLength="195" x="786" y="1082.5801">Certaines options peuvent être</text><text fill="#000000" font-family="sans-serif" font-size="14" lengthAdjust="spacing" textLength="276" x="786" y="1100.1895">bloquées ou automatisées contextuellement</text></g><g id="elem_Vue_QT_3"><rect fill="#F1F1F1" height="100.0469" style="stroke:#181818;stroke-width:0.5;" width="200" x="947" y="1416"/><text fill="#000000" font-family="sans-serif" font-size="14" lengthAdjust="spacing" textLength="69" x="1012.5" y="1432.5332">Vue_QT_3</text><line style="stroke:#181818;stroke-width:0.5;" x1="948" x2="1146" y1="1437.6094" y2="1437.6094"/><text fill="#000000" font-family="sans-serif" font-size="14" lengthAdjust="spacing" textLength="74" x="953" y="1456.1426">CHOSABLE</text><text fill="#000000" font-family="sans-serif" font-size="14" lengthAdjust="spacing" textLength="115" x="953" y="1473.752">Choix d'une borne</text><text fill="#000000" font-family="sans-serif" font-size="14" lengthAdjust="spacing" textLength="125" x="953" y="1491.3613">sur le plateau parmi</text><text fill="#000000" font-family="sans-serif" font-size="14" lengthAdjust="spacing" textLength="188" x="953" y="1508.9707">les bornes listées CHOSABLE</text></g><g id="elem_Vue_QT_4"><rect fill="#F1F1F1" height="64.8281" style="stroke:#181818;stroke-width:0.5;" width="163" x="1402.5" y="1914"/><text fill="#000000" font-family="sans-serif" font-size="14" lengthAdjust="spacing" textLength="69" x="1449.5" y="1930.5332">Vue_QT_4</text><line style="stroke:#181818;stroke-width:0.5;" x1="1403.5" x2="1564.5" y1="1935.6094" y2="1935.6094"/><text fill="#000000" font-family="sans-serif" font-size="14" lengthAdjust="spacing" textLength="151" x="1408.5" y="1954.1426">Affichage d'un message</text><text fill="#000000" font-family="sans-serif" font-size="14" lengthAdjust="spacing" textLength="151" x="1408.5" y="1971.752">avec bouton "continuer"</text></g><g id="elem_main"><rect fill="#F1F1F1" height="64.8281" style="stroke:#181818;stroke-width:0.5;" width="183" x="133.5" y="7"/><text fill="#000000" font-family="sans-serif" font-size="14" lengthAdjust="spacing" textLength="30" x="210" y="23.5332">main</text><line style="stroke:#181818;stroke-width:0.5;" x1="134.5" x2="315.5" y1="28.6094" y2="28.6094"/><text fill="#000000" font-family="sans-serif" font-size="14" lengthAdjust="spacing" textLength="161" x="139.5" y="47.1426">Création de l'instance QT</text><text fill="#000000" font-family="sans-serif" font-size="14" lengthAdjust="spacing" textLength="171" x="139.5" y="64.752">QT crée l'objet superviseur</text></g><g id="elem_eventFirstStart"><rect fill="#F1F1F1" height="64.8281" style="stroke:#181818;stroke-width:0.5;" width="282" x="84" y="133"/><text fill="#000000" font-family="sans-serif" font-size="14" lengthAdjust="spacing" textLength="93" x="178.5" y="149.5332">eventFirstStart</text><line style="stroke:#181818;stroke-width:0.5;" x1="85" x2="365" y1="154.6094" y2="154.6094"/><text fill="#000000" font-family="sans-serif" font-size="14" lengthAdjust="spacing" textLength="270" x="90" y="173.1426">Supervisor::getInstance().eventFirstStart();</text><text fill="#000000" font-family="sans-serif" font-size="14" lengthAdjust="spacing" textLength="172" x="90" y="190.752">Initialisation la plus basique</text></g><g id="elem_eventStartGame"><rect fill="#F1F1F1" height="82.4375" style="stroke:#181818;stroke-width:0.5;" width="386" x="249" y="436"/><text fill="#000000" font-family="sans-serif" font-size="14" lengthAdjust="spacing" textLength="103" x="390.5" y="452.5332">eventStartGame</text><line style="stroke:#181818;stroke-width:0.5;" x1="250" x2="634" y1="457.6094" y2="457.6094"/><text fill="#000000" font-family="sans-serif" font-size="14" lengthAdjust="spacing" textLength="94" x="255" y="476.1426">PARAMETRES</text><text fill="#000000" font-family="sans-serif" font-size="14" lengthAdjust="spacing" textLength="374" x="255" y="493.752">Supervisor::getInstance().eventStartGame(PARAMETRES);</text><text fill="#000000" font-family="sans-serif" font-size="14" lengthAdjust="spacing" textLength="352" x="255" y="511.3613">Supervisor::getInstance().setController(PARAMETRES);</text></g><g id="elem_newRound"><rect fill="#F1F1F1" height="47.2188" style="stroke:#181818;stroke-width:0.5;" width="159" x="362.5" y="596"/><text fill="#000000" font-family="sans-serif" font-size="14" lengthAdjust="spacing" textLength="67" x="408.5" y="612.5332">newRound</text><line style="stroke:#181818;stroke-width:0.5;" x1="363.5" x2="520.5" y1="617.6094" y2="617.6094"/><text fill="#000000" font-family="sans-serif" font-size="14" lengthAdjust="spacing" textLength="147" x="368.5" y="636.1426">Controller::newRound()</text></g><g id="elem_eventStartTurn"><rect fill="#F1F1F1" height="47.2188" style="stroke:#181818;stroke-width:0.5;" width="286" x="321" y="704"/><text fill="#000000" font-family="sans-serif" font-size="14" lengthAdjust="spacing" textLength="95" x="416.5" y="720.5332">eventStartTurn</text><line style="stroke:#181818;stroke-width:0.5;" x1="322" x2="606" y1="725.6094" y2="725.6094"/><text fill="#000000" font-family="sans-serif" font-size="14" lengthAdjust="spacing" textLength="274" x="327" y="744.1426">Initialise les variables pour un nouveau tour</text></g><g id="elem_checkRound"><rect fill="#F1F1F1" height="82.4375" style="stroke:#181818;stroke-width:0.5;" width="273" x="249.5" y="1425"/><text fill="#000000" font-family="sans-serif" font-size="14" lengthAdjust="spacing" textLength="79" x="346.5" y="1441.5332">checkRound</text><line style="stroke:#181818;stroke-width:0.5;" x1="250.5" x2="521.5" y1="1446.6094" y2="1446.6094"/><text fill="#000000" font-family="sans-serif" font-size="14" lengthAdjust="spacing" textLength="151" x="255.5" y="1465.1426">vérifie l'état des bornes,</text><text fill="#000000" font-family="sans-serif" font-size="14" lengthAdjust="spacing" textLength="261" x="255.5" y="1482.752">l'état du jeu (scores, manches restantes),</text><text fill="#000000" font-family="sans-serif" font-size="14" lengthAdjust="spacing" textLength="130" x="255.5" y="1500.3613">détermine si victoire.</text></g><g id="elem_eventCardPicked"><rect fill="#F1F1F1" height="152.875" style="stroke:#181818;stroke-width:0.5;" width="433" x="1119.5" y="1185"/><text fill="#000000" font-family="sans-serif" font-size="14" lengthAdjust="spacing" textLength="108" x="1282" y="1201.5332">eventCardPicked</text><line style="stroke:#181818;stroke-width:0.5;" x1="1120.5" x2="1551.5" y1="1206.6094" y2="1206.6094"/><text fill="#000000" font-family="sans-serif" font-size="14" lengthAdjust="spacing" textLength="94" x="1125.5" y="1225.1426">PARAMETRES</text><text fill="#000000" font-family="sans-serif" font-size="14" lengthAdjust="spacing" textLength="303" x="1125.5" y="1242.752">Controller::getChosableStones() -&gt; CHOSABLE;</text><text fill="#000000" font-family="sans-serif" font-size="14" lengthAdjust="spacing" textLength="126" x="1125.5" y="1260.3613">si une carte choisie,</text><text fill="#000000" font-family="sans-serif" font-size="14" lengthAdjust="spacing" textLength="274" x="1125.5" y="1277.9707">1. stocke la carte choisie dans le controleur</text><text fill="#000000" font-family="sans-serif" font-size="14" lengthAdjust="spacing" textLength="421" x="1125.5" y="1295.5801">2. utilise une methode de la carte pour evaluer les bornes jouables</text><text fill="#000000" font-family="sans-serif" font-size="14" lengthAdjust="spacing" textLength="352" x="1125.5" y="1313.1895">getPlayableStoones(Carte Sélectionnée) -&gt; CHOSABLE</text><text fill="#000000" font-family="sans-serif" font-size="14" lengthAdjust="spacing" textLength="380" x="1125.5" y="1330.7988">: on veut sélectionner une borne sur laquelle lancer la carte.</text></g><g id="elem_eventChoiceClaim"><rect fill="#F1F1F1" height="47.2188" style="stroke:#181818;stroke-width:0.5;" width="320" x="764" y="1238"/><text fill="#000000" font-family="sans-serif" font-size="14" lengthAdjust="spacing" textLength="114" x="867" y="1254.5332">eventChoiceClaim</text><line style="stroke:#181818;stroke-width:0.5;" x1="765" x2="1083" y1="1259.6094" y2="1259.6094"/><text fill="#000000" font-family="sans-serif" font-size="14" lengthAdjust="spacing" textLength="308" x="770" y="1278.1426">Controller::getUnclaimedStones() -&gt; CHOSABLE;</text></g><g id="elem_claimStone"><rect fill="#F1F1F1" height="82.4375" style="stroke:#181818;stroke-width:0.5;" width="238" x="1082" y="1754"/><text fill="#000000" font-family="sans-serif" font-size="14" lengthAdjust="spacing" textLength="69" x="1166.5" y="1770.5332">claimStone</text><line style="stroke:#181818;stroke-width:0.5;" x1="1083" x2="1319" y1="1775.6094" y2="1775.6094"/><text fill="#000000" font-family="sans-serif" font-size="14" lengthAdjust="spacing" textLength="188" x="1088" y="1794.1426">tente de revendiquer la borne</text><text fill="#000000" font-family="sans-serif" font-size="14" lengthAdjust="spacing" textLength="226" x="1088" y="1811.752">stocke un message de résultat pour</text><text fill="#000000" font-family="sans-serif" font-size="14" lengthAdjust="spacing" textLength="141" x="1088" y="1829.3613">le joueur (RESULTAT)</text></g><g id="elem_eventStonePicked"><rect fill="#F1F1F1" height="82.4375" style="stroke:#181818;stroke-width:0.5;" width="224" x="935" y="1594"/><text fill="#000000" font-family="sans-serif" font-size="14" lengthAdjust="spacing" textLength="114" x="990" y="1610.5332">eventStonePicked</text><line style="stroke:#181818;stroke-width:0.5;" x1="936" x2="1158" y1="1615.6094" y2="1615.6094"/><text fill="#000000" font-family="sans-serif" font-size="14" lengthAdjust="spacing" textLength="190" x="941" y="1634.1426">Conserve la valeur de la carte</text><text fill="#000000" font-family="sans-serif" font-size="14" lengthAdjust="spacing" textLength="202" x="941" y="1651.752">et déclenche d'autres méthodes</text><text fill="#000000" font-family="sans-serif" font-size="14" lengthAdjust="spacing" textLength="212" x="941" y="1669.3613">en fonction de l'état du contrôleur</text></g><g id="elem_eventChoiceEndTurn"><rect fill="#F1F1F1" height="37.6094" style="stroke:#181818;stroke-width:0.5;" width="148" x="439" y="1242.5"/><text fill="#000000" font-family="sans-serif" font-size="14" lengthAdjust="spacing" textLength="134" x="446" y="1259.0332">eventChoiceEndTurn</text><line style="stroke:#181818;stroke-width:0.5;" x1="440" x2="586" y1="1264.1094" y2="1264.1094"/></g><g id="elem_qtDisplayPlayerTurn"><rect fill="#F1F1F1" height="82.4375" style="stroke:#181818;stroke-width:0.5;" width="308" x="770" y="812"/><text fill="#000000" font-family="sans-serif" font-size="14" lengthAdjust="spacing" textLength="128" x="860" y="828.5332">qtDisplayPlayerTurn</text><line style="stroke:#181818;stroke-width:0.5;" x1="771" x2="1077" y1="833.6094" y2="833.6094"/><text fill="#000000" font-family="sans-serif" font-size="14" lengthAdjust="spacing" textLength="238" x="776" y="852.1426">Controller::getHand() -&gt; GAME_INFO;</text><text fill="#000000" font-family="sans-serif" font-size="14" lengthAdjust="spacing" textLength="243" x="776" y="869.752">Controller::getBoard() -&gt; GAME_INFO;</text><text fill="#000000" font-family="sans-serif" font-size="14" lengthAdjust="spacing" textLength="296" x="776" y="887.3613">Controller::getPickableCards() -&gt; GAME_INFO;</text></g><g id="elem_eventChoiceDraw"><rect fill="#F1F1F1" height="47.2188" style="stroke:#181818;stroke-width:0.5;" width="280" x="1588" y="1238"/><text fill="#000000" font-family="sans-serif" font-size="14" lengthAdjust="spacing" textLength="111" x="1672.5" y="1254.5332">eventChoiceDraw</text><line style="stroke:#181818;stroke-width:0.5;" x1="1589" x2="1867" y1="1259.6094" y2="1259.6094"/><text fill="#000000" font-family="sans-serif" font-size="14" lengthAdjust="spacing" textLength="268" x="1594" y="1278.1426">Controller::drawCard() / Deck::drawCard();</text></g><g id="elem_qtGameOver"><rect fill="#F1F1F1" height="82.4375" style="stroke:#181818;stroke-width:0.5;" width="263" x="254.5" y="1594"/><text fill="#000000" font-family="sans-serif" font-size="14" lengthAdjust="spacing" textLength="81" x="345.5" y="1610.5332">qtGameOver</text><line style="stroke:#181818;stroke-width:0.5;" x1="255.5" x2="516.5" y1="1615.6094" y2="1615.6094"/><text fill="#000000" font-family="sans-serif" font-size="14" lengthAdjust="spacing" textLength="165" x="260.5" y="1634.1426">Controller::qtGameOver();</text><text fill="#000000" font-family="sans-serif" font-size="14" lengthAdjust="spacing" textLength="251" x="260.5" y="1651.752">indique à QT que la partie est terminée,</text><text fill="#000000" font-family="sans-serif" font-size="14" lengthAdjust="spacing" textLength="198" x="260.5" y="1669.3613">QT retourne au menu principal.</text></g><!--MD5=[b9ce53e8d3456cbcaef5efa69167e397]
class Card::activate--><g id="elem_Card::activate"><rect fill="#F1F1F1" height="48" id="Card::activate" rx="2.5" ry="2.5" style="stroke:#181818;stroke-width:0.5;" width="120" x="831" y="1771"/><ellipse cx="846" cy="1787" fill="#ADD1B2" rx="11" ry="11" style="stroke:#181818;stroke-width:1.0;"/><path d="M848.7656,1782.875 Q848.9219,1782.6563 849.1094,1782.5469 Q849.2969,1782.4375 849.5156,1782.4375 Q849.8906,1782.4375 850.125,1782.7031 Q850.3594,1782.9531 850.3594,1783.5625 L850.3594,1785.0156 Q850.3594,1785.625 850.125,1785.8906 Q849.8906,1786.1563 849.5156,1786.1563 Q849.1719,1786.1563 848.9688,1785.9531 Q848.7656,1785.7656 848.6563,1785.25 Q848.6094,1784.8906 848.4219,1784.7031 Q848.0938,1784.3281 847.4844,1784.1094 Q846.875,1783.8906 846.25,1783.8906 Q845.4844,1783.8906 844.8438,1784.2188 Q844.2188,1784.5469 843.7188,1785.2969 Q843.2344,1786.0469 843.2344,1787.0781 L843.2344,1788.1719 Q843.2344,1789.4063 844.125,1790.2344 Q845.0156,1791.0469 846.6094,1791.0469 Q847.5469,1791.0469 848.2031,1790.7969 Q848.5938,1790.6406 849.0156,1790.2031 Q849.2813,1789.9375 849.4219,1789.8594 Q849.5781,1789.7813 849.7813,1789.7813 Q850.1094,1789.7813 850.3594,1790.0469 Q850.625,1790.2969 850.625,1790.6406 Q850.625,1790.9844 850.2813,1791.3906 Q849.7813,1791.9688 848.9844,1792.2969 Q847.9063,1792.75 846.6094,1792.75 Q845.0938,1792.75 843.8906,1792.125 Q842.9063,1791.625 842.2188,1790.5625 Q841.5313,1789.4844 841.5313,1788.2031 L841.5313,1787.0469 Q841.5313,1785.7188 842.1406,1784.5781 Q842.7656,1783.4219 843.8594,1782.8125 Q844.9531,1782.1875 846.1875,1782.1875 Q846.9219,1782.1875 847.5625,1782.3594 Q848.2188,1782.5156 848.7656,1782.875 Z " fill="#000000"/><text fill="#000000" font-family="sans-serif" font-size="14" lengthAdjust="spacing" textLength="88" x="860" y="1792.7285">Card::activate</text><line style="stroke:#181818;stroke-width:0.5;" x1="832" x2="950" y1="1803" y2="1803"/><line style="stroke:#181818;stroke-width:0.5;" x1="832" x2="950" y1="1811" y2="1811"/></g><!--MD5=[93da32ab14659767c9deaec432c35ef6]
link main to eventFirstStart--><g id="link_main_eventFirstStart"><path codeLine="109" d="M225,72.11 C225,89.02 225,109.93 225,127.58 " fill="none" id="main-to-eventFirstStart" style="stroke:#181818;stroke-width:1.0;"/><polygon fill="#181818" points="225,132.95,229,123.95,225,127.95,221,123.95,225,132.95" style="stroke:#181818;stroke-width:1.0;"/></g><!--MD5=[9c909298c24d2f712df49d5ca140d575]
link eventFirstStart to Vue_QT_1--><g id="link_eventFirstStart_Vue_QT_1"><path codeLine="112" d="M225,198.21 C225,219.24 225,247.18 225,270.57 " fill="none" id="eventFirstStart-to-Vue_QT_1" style="stroke:#181818;stroke-width:1.0;"/><polygon fill="#181818" points="225,275.79,229,266.79,225,270.79,221,266.79,225,275.79" style="stroke:#181818;stroke-width:1.0;"/><text fill="#000000" font-family="sans-serif" font-size="13" lengthAdjust="spacing" textLength="122" x="226" y="242.4951">qtDisplayMainMenu()</text></g><!--MD5=[8324e6c6b7c6758de0db1981a9312410]
link Vue_QT_1 to eventStartGame--><g id="link_Vue_QT_1_eventStartGame"><path codeLine="113" d="M280.04,358.07 C311.4,380.91 350.71,409.53 382.75,432.86 " fill="none" id="Vue_QT_1-to-eventStartGame" style="stroke:#181818;stroke-width:1.0;"/><polygon fill="#181818" points="387.02,435.97,382.0976,427.4394,382.9776,433.0274,377.3896,433.9074,387.02,435.97" style="stroke:#181818;stroke-width:1.0;"/><text fill="#000000" font-family="sans-serif" font-size="13" lengthAdjust="spacing" textLength="90" x="342" y="402.4951">PARAMETRES</text></g><!--MD5=[79566d399263f52bf682d868cf3dba22]
link eventStartGame to newRound--><g id="link_eventStartGame_newRound"><path codeLine="114" d="M442,518.26 C442,541.44 442,569.97 442,590.66 " fill="none" id="eventStartGame-to-newRound" style="stroke:#181818;stroke-width:1.0;"/><polygon fill="#181818" points="442,595.74,446,586.74,442,590.74,438,586.74,442,595.74" style="stroke:#181818;stroke-width:1.0;"/><text fill="#000000" font-family="sans-serif" font-size="13" lengthAdjust="spacing" textLength="214" x="443" y="562.4951">Controller::runGame(PARAMETRES)</text></g><!--MD5=[7a71f824b53fe39bd2f030cc968b32df]
link newRound to eventStartTurn--><g id="link_newRound_eventStartTurn"><path codeLine="115" d="M446.72,643.24 C450.08,659.45 454.63,681.33 458.21,698.6 " fill="none" id="newRound-to-eventStartTurn" style="stroke:#181818;stroke-width:1.0;"/><polygon fill="#181818" points="459.29,703.8,461.3827,694.176,458.2765,698.9038,453.5487,695.7976,459.29,703.8" style="stroke:#181818;stroke-width:1.0;"/></g><!--MD5=[73a33f37bf224c5ccef6bb5eab2af6fd]
link qtDisplayPlayerTurn to Vue_QT_2--><g id="link_qtDisplayPlayerTurn_Vue_QT_2"><path codeLine="116" d="M924,894.03 C924,915.21 924,941.85 924,966.48 " fill="none" id="qtDisplayPlayerTurn-to-Vue_QT_2" style="stroke:#181818;stroke-width:1.0;"/><polygon fill="#181818" points="924,971.7,928,962.7,924,966.7,920,962.7,924,971.7" style="stroke:#181818;stroke-width:1.0;"/><text fill="#000000" font-family="sans-serif" font-size="13" lengthAdjust="spacing" textLength="76" x="925" y="938.4951">GAME_INFO</text></g><!--MD5=[ba606093ed3edc544c32ecdf4c6c820b]
link qtGameOver to Vue_QT_1--><g id="link_qtGameOver_Vue_QT_1"><path codeLine="117" d="M293.23,1593.95 C245,1566.26 196,1524.09 196,1467 C196,476 196,476 196,476 C196,437.48 204.44,394.54 212.21,363.15 " fill="none" id="qtGameOver-to-Vue_QT_1" style="stroke:#181818;stroke-width:1.0;"/><polygon fill="#181818" points="213.46,358.22,207.3912,365.9769,212.244,363.0699,215.151,367.9226,213.46,358.22" style="stroke:#181818;stroke-width:1.0;"/></g><!--MD5=[bec8a117807e2f645bbb84a74034e2f5]
link checkRound to newRound--><g id="link_checkRound_newRound"><path codeLine="120" d="M345.39,1424.76 C311.26,1386.5 268,1325.57 268,1262.5 C268,726.5 268,726.5 268,726.5 C268,680.34 313.21,653.7 357.54,638.67 " fill="none" id="checkRound-to-newRound" style="stroke:#181818;stroke-width:1.0;"/><polygon fill="#181818" points="362.38,637.07,352.5813,636.077,357.6295,638.6297,355.0768,643.6778,362.38,637.07" style="stroke:#181818;stroke-width:1.0;"/><text fill="#000000" font-family="sans-serif" font-size="13" lengthAdjust="spacing" textLength="93" x="269" y="938.4951">[si round gagné]</text></g><!--MD5=[64a5f506e139dd1681f8aa83f099ed11]
link checkRound to qtGameOver--><g id="link_checkRound_qtGameOver"><path codeLine="121" d="M386,1507 C386,1531.61 386,1563.21 386,1588.73 " fill="none" id="checkRound-to-qtGameOver" style="stroke:#181818;stroke-width:1.0;"/><polygon fill="#181818" points="386,1593.75,390,1584.75,386,1588.75,382,1584.75,386,1593.75" style="stroke:#181818;stroke-width:1.0;"/><text fill="#000000" font-family="sans-serif" font-size="13" lengthAdjust="spacing" textLength="136" x="387" y="1560.4951">[si dernier round gagné]</text></g><!--MD5=[5b5f4ae5276b67465c8a7c0db397f906]
link checkRound to eventStartTurn--><g id="link_checkRound_eventStartTurn"><path codeLine="122" d="M386,1424.66 C386,1383.79 386,1318.75 386,1262.5 C386,852 386,852 386,852 C386,813.97 412.77,778.11 434.95,754.93 " fill="none" id="checkRound-to-eventStartTurn" style="stroke:#181818;stroke-width:1.0;"/><polygon fill="#181818" points="438.46,751.32,429.311,754.9665,434.9675,754.898,435.0359,760.5545,438.46,751.32" style="stroke:#181818;stroke-width:1.0;"/><text fill="#000000" font-family="sans-serif" font-size="13" lengthAdjust="spacing" textLength="118" x="387" y="1044.9951">[si round non gagné]</text></g><!--MD5=[530cf5ab9ef69e3c7f1e8019a38a35e1]
link Vue_QT_2 to eventChoiceEndTurn--><g id="link_Vue_QT_2_eventChoiceEndTurn"><path codeLine="125" d="M779.9,1063.66 C721.81,1077.99 656.5,1100.84 605,1137 C567.56,1163.29 539.07,1209.6 524.29,1237.43 " fill="none" id="Vue_QT_2-to-eventChoiceEndTurn" style="stroke:#181818;stroke-width:1.0;"/><polygon fill="#181818" points="521.86,1242.07,529.5735,1235.9461,524.1758,1237.6386,522.4833,1232.2409,521.86,1242.07" style="stroke:#181818;stroke-width:1.0;"/><text fill="#000000" font-family="sans-serif" font-size="13" lengthAdjust="spacing" textLength="78" x="606" y="1151.4951">[parfois forcé]</text></g><!--MD5=[54c3e3e62cf5ab75b7b3fbe34ac2f699]
link Vue_QT_2 to eventChoiceDraw--><g id="link_Vue_QT_2_eventChoiceDraw"><path codeLine="126" d="M1068.02,1063.1 C1200.67,1086.16 1401.78,1126.83 1570,1185 C1609.3,1198.59 1651.7,1219.21 1682.68,1235.47 " fill="none" id="Vue_QT_2-to-eventChoiceDraw" style="stroke:#181818;stroke-width:1.0;"/><polygon fill="#181818" points="1687.17,1237.83,1681.0656,1230.101,1682.7445,1235.503,1677.3425,1237.1819,1687.17,1237.83" style="stroke:#181818;stroke-width:1.0;"/></g><!--MD5=[a5f2a19f36e29369cbe75b9d22571a6f]
link Vue_QT_2 to eventChoiceClaim--><g id="link_Vue_QT_2_eventChoiceClaim"><path codeLine="127" d="M924,1107.1 C924,1149.19 924,1201.36 924,1232.73 " fill="none" id="Vue_QT_2-to-eventChoiceClaim" style="stroke:#181818;stroke-width:1.0;"/><polygon fill="#181818" points="924,1237.96,928,1228.96,924,1232.96,920,1228.96,924,1237.96" style="stroke:#181818;stroke-width:1.0;"/></g><!--MD5=[af2645a39745958b1cc644ad44af968a]
link Vue_QT_2 to eventCardPicked--><g id="link_Vue_QT_2_eventCardPicked"><path codeLine="128" d="M1048.73,1107.1 C1093.24,1130.87 1143.78,1157.86 1189.93,1182.5 " fill="none" id="Vue_QT_2-to-eventCardPicked" style="stroke:#181818;stroke-width:1.0;"/><polygon fill="#181818" points="1194.38,1184.88,1188.3251,1177.1122,1189.9694,1182.5248,1184.5568,1184.1692,1194.38,1184.88" style="stroke:#181818;stroke-width:1.0;"/><text fill="#000000" font-family="sans-serif" font-size="13" lengthAdjust="spacing" textLength="90" x="1131" y="1151.4951">PARAMETRES</text></g><!--MD5=[973c8b9bbe4766f8bd6e36291579061b]
link eventCardPicked to Vue_QT_3--><g id="link_eventCardPicked_Vue_QT_3"><path codeLine="130" d="M1266.97,1338 C1249.36,1354.98 1229.79,1372.07 1210,1386 C1192.07,1398.62 1171.81,1410.23 1151.83,1420.44 " fill="none" id="eventCardPicked-to-Vue_QT_3" style="stroke:#181818;stroke-width:1.0;"/><polygon fill="#181818" points="1147.3,1422.73,1157.1363,1422.2325,1151.7606,1420.4711,1153.522,1415.0954,1147.3,1422.73" style="stroke:#181818;stroke-width:1.0;"/><text fill="#000000" font-family="sans-serif" font-size="13" lengthAdjust="spacing" textLength="204" x="1233" y="1382.4951">qtDisplayStonePicker(CHOSABLE)</text></g><!--MD5=[8ad9aafd9561fbec6ab620ee68d9090e]
link Vue_QT_3 to eventStonePicked--><g id="link_Vue_QT_3_eventStonePicked"><path codeLine="131" d="M1047,1516.2 C1047,1539.19 1047,1566.38 1047,1588.84 " fill="none" id="Vue_QT_3-to-eventStonePicked" style="stroke:#181818;stroke-width:1.0;"/><polygon fill="#181818" points="1047,1593.85,1051,1584.85,1047,1588.85,1043,1584.85,1047,1593.85" style="stroke:#181818;stroke-width:1.0;"/><text fill="#000000" font-family="sans-serif" font-size="13" lengthAdjust="spacing" textLength="90" x="1048" y="1560.4951">PARAMETRES</text></g><!--MD5=[1026ce04646f09c22b6f69358aacbd38]
link eventStonePicked to Card::activate--><g id="link_eventStonePicked_Card::activate"><path codeLine="132" d="M1007.23,1676.28 C979.01,1704.86 941.92,1742.43 917.31,1767.35 " fill="none" id="eventStonePicked-to-Card::activate" style="stroke:#181818;stroke-width:1.0;"/><polygon fill="#181818" points="913.77,1770.94,922.9408,1767.3488,917.284,1767.3831,917.2498,1761.7264,913.77,1770.94" style="stroke:#181818;stroke-width:1.0;"/><text fill="#000000" font-family="sans-serif" font-size="13" lengthAdjust="spacing" textLength="119" x="974" y="1720.4951">[si eventCardPicked]</text></g><!--MD5=[cc37c441b316f1ca935108837ddc9a24]
link eventStonePicked to claimStone--><g id="link_eventStonePicked_claimStone"><path codeLine="133" d="M1086.26,1676.28 C1108.25,1698.84 1135.7,1727.01 1158.24,1750.13 " fill="none" id="eventStonePicked-to-claimStone" style="stroke:#181818;stroke-width:1.0;"/><polygon fill="#181818" points="1161.81,1753.79,1158.3859,1744.5555,1158.3175,1750.212,1152.661,1750.1435,1161.81,1753.79" style="stroke:#181818;stroke-width:1.0;"/><text fill="#000000" font-family="sans-serif" font-size="13" lengthAdjust="spacing" textLength="125" x="1129" y="1720.4951">[si eventChoiceClaim]</text></g><!--MD5=[0e18ca086c37980573d669367b5068b0]
link claimStone to Vue_QT_4--><g id="link_claimStone_Vue_QT_4"><path codeLine="134" d="M1276.84,1836.06 C1321.39,1859.6 1377.09,1889.02 1419.51,1911.43 " fill="none" id="claimStone-to-Vue_QT_4" style="stroke:#181818;stroke-width:1.0;"/><polygon fill="#181818" points="1424.1,1913.85,1417.9956,1906.121,1419.6745,1911.523,1414.2725,1913.2019,1424.1,1913.85" style="stroke:#181818;stroke-width:1.0;"/><text fill="#000000" font-family="sans-serif" font-size="13" lengthAdjust="spacing" textLength="155" x="1360" y="1880.4951">qtDisplayAlert(RESULTAT)</text></g><!--MD5=[f67a1e50decb46cc739a132831a29798]
link eventChoiceClaim to Vue_QT_3--><g id="link_eventChoiceClaim_Vue_QT_3"><path codeLine="135" d="M937.87,1285.34 C956.3,1315.67 989.43,1370.22 1014.37,1411.27 " fill="none" id="eventChoiceClaim-to-Vue_QT_3" style="stroke:#181818;stroke-width:1.0;"/><polygon fill="#181818" points="1017.06,1415.71,1015.7973,1405.9424,1014.4603,1411.439,1008.9637,1410.102,1017.06,1415.71" style="stroke:#181818;stroke-width:1.0;"/><text fill="#000000" font-family="sans-serif" font-size="13" lengthAdjust="spacing" textLength="204" x="997" y="1382.4951">qtDisplayStonePicker(CHOSABLE)</text></g><!--MD5=[df693ccab2e0b5015813a82687582ead]
link Card::activate to qtDisplayPlayerTurn--><g id="link_Card::activate_qtDisplayPlayerTurn"><path codeLine="138" d="M830.88,1783.48 C756.62,1766.62 640,1725.85 640,1636 C640,1038.5 640,1038.5 640,1038.5 C640,968.74 701.01,924.01 766.47,896.09 " fill="none" id="Card::activate-to-qtDisplayPlayerTurn" style="stroke:#181818;stroke-width:1.0;"/><polygon fill="#181818" points="771.19,894.11,761.3436,893.89,766.5767,896.0381,764.4286,901.2713,771.19,894.11" style="stroke:#181818;stroke-width:1.0;"/></g><!--MD5=[02182020ad2b180a7e9f1c07ffa1d6f6]
link eventStartTurn to qtDisplayPlayerTurn--><g id="link_eventStartTurn_qtDisplayPlayerTurn"><path codeLine="139" d="M547.84,751.01 C609.71,767.62 695.67,790.7 769.81,810.6 " fill="none" id="eventStartTurn-to-qtDisplayPlayerTurn" style="stroke:#181818;stroke-width:1.0;"/><polygon fill="#181818" points="774.68,811.91,767.0294,805.7078,769.8519,810.6101,764.9496,813.4327,774.68,811.91" style="stroke:#181818;stroke-width:1.0;"/></g><!--MD5=[c6af451439fc0f637139f6f9de028a53]
link eventChoiceDraw to qtDisplayPlayerTurn--><g id="link_eventChoiceDraw_qtDisplayPlayerTurn"><path codeLine="140" d="M1683.26,1237.88 C1553.78,1172.42 1177.15,981.99 1007.99,896.46 " fill="none" id="eventChoiceDraw-to-qtDisplayPlayerTurn" style="stroke:#181818;stroke-width:1.0;"/><polygon fill="#181818" points="1003.29,894.09,1009.5219,901.7165,1007.7535,896.3432,1013.1269,894.5749,1003.29,894.09" style="stroke:#181818;stroke-width:1.0;"/></g><!--MD5=[362024fbccbcfac0b906b0034e45c214]
link Vue_QT_4 to qtDisplayPlayerTurn--><g id="link_Vue_QT_4_qtDisplayPlayerTurn"><path codeLine="141" d="M1565.68,1934.57 C1692.17,1915.34 1921,1870.27 1921,1796 C1921,1038.5 1921,1038.5 1921,1038.5 C1921,954.38 1365.12,893.01 1083.5,867.32 " fill="none" id="Vue_QT_4-to-qtDisplayPlayerTurn" style="stroke:#181818;stroke-width:1.0;"/><polygon fill="#181818" points="1078.14,866.84,1086.7359,871.6473,1083.119,867.2978,1087.4685,863.6809,1078.14,866.84" style="stroke:#181818;stroke-width:1.0;"/><text fill="#000000" font-family="sans-serif" font-size="13" lengthAdjust="spacing" textLength="104" x="1922" y="1471.4951">[bouton continuer]</text></g><!--MD5=[21d0a30a633ca7ebefb0a8404ce25081]
link eventChoiceEndTurn to checkRound--><g id="link_eventChoiceEndTurn_checkRound"><path codeLine="144" d="M501.51,1280.83 C481.91,1312.08 441.49,1376.53 414.05,1420.27 " fill="none" id="eventChoiceEndTurn-to-checkRound" style="stroke:#181818;stroke-width:1.0;"/><polygon fill="#181818" points="411.27,1424.7,419.4453,1419.2078,413.9303,1420.4664,412.6716,1414.9514,411.27,1424.7" style="stroke:#181818;stroke-width:1.0;"/><text fill="#000000" font-family="sans-serif" font-size="13" lengthAdjust="spacing" textLength="80" x="447" y="1382.4951">checkRound()</text></g><!--MD5=[2123cdf28941a808b64c4ab637b6d01b]
link Vue_QT_2 to qtGameOver--><g id="link_Vue_QT_2_qtGameOver"><path codeLine="145" d="M824.41,1107.34 C796.64,1129.56 768.28,1156.09 747,1185 C689.9,1262.56 713.37,1302.14 666,1386 C617.3,1472.22 608.6,1501.25 532,1564 C519.49,1574.25 505.22,1583.43 490.62,1591.5 " fill="none" id="Vue_QT_2-to-qtGameOver" style="stroke:#181818;stroke-width:1.0;"/><polygon fill="#181818" points="486.08,1593.97,495.8984,1593.1965,490.4755,1591.5867,492.0852,1586.1638,486.08,1593.97" style="stroke:#181818;stroke-width:1.0;"/><text fill="#000000" font-family="sans-serif" font-size="13" lengthAdjust="spacing" textLength="123" x="675" y="1382.4951">[bouton quitter partie]</text></g><!--MD5=[bd094d334cbc2231dc16e98e27416c8c]
@startuml Evenements

''' VUES '''

object Vue_QT_1 {
    Choix de la Version
    Paramétrage de la partie
    Affichage des informations sur la dernière partie (scores, victoire...)
}

object Vue_QT_2 {
    Le joueur peut piocher,
    choisir une carte à jouer,
    Revendiquer une borne,
    ou finir son tour.
    Certaines options peuvent être
    bloquées ou automatisées contextuellement
}
object Vue_QT_3 {
    CHOSABLE
    Choix d'une borne
    sur le plateau parmi
    les bornes listées CHOSABLE
}

object Vue_QT_4 {
    Affichage d'un message
    avec bouton "continuer"
}

''' événements '''

object main {
    Création de l'instance QT
    QT crée l'objet superviseur
}

object eventFirstStart {
    Supervisor::getInstance().eventFirstStart();
    Initialisation la plus basique
}

object eventStartGame {
    PARAMETRES
    Supervisor::getInstance().eventStartGame(PARAMETRES);
    Supervisor::getInstance().setController(PARAMETRES);
}

object newRound {
    Controller::newRound()
}

object eventStartTurn {
    Initialise les variables pour un nouveau tour
}

object checkRound {
    vérifie l'état des bornes,
    l'état du jeu (scores, manches restantes),
    détermine si victoire.
}

object eventCardPicked {
    PARAMETRES
    Controller::getChosableStones() -> CHOSABLE;
    si une carte choisie, 
        1. stocke la carte choisie dans le controleur
        2. utilise une methode de la carte pour evaluer les bornes jouables 
        getPlayableStoones(Carte Sélectionnée) -> CHOSABLE
        : on veut sélectionner une borne sur laquelle lancer la carte.
}

object eventChoiceClaim {
    Controller::getUnclaimedStones() -> CHOSABLE;
}

object claimStone {
    tente de revendiquer la borne
    stocke un message de résultat pour
    le joueur (RESULTAT)
}

object eventStonePicked {
    Conserve la valeur de la carte
    et déclenche d'autres méthodes
    en fonction de l'état du contrôleur
}

object eventChoiceEndTurn {

}

object qtDisplayPlayerTurn {
    Controller::getHand() -> GAME_INFO;
    Controller::getBoard() -> GAME_INFO;
    Controller::getPickableCards() -> GAME_INFO;
}

object eventChoiceDraw {
    Controller::drawCard() / Deck::drawCard();
}

object qtGameOver {
    Controller::qtGameOver();
    indique à QT que la partie est terminée,
    QT retourne au menu principal.
}

''' FLECHES '''
main - -> eventFirstStart

''' BOUCLE PRINCIPALE '''
eventFirstStart - -> Vue_QT_1 : qtDisplayMainMenu()
Vue_QT_1 - -> eventStartGame : PARAMETRES
eventStartGame - -> newRound : Controller::runGame(PARAMETRES)
newRound - -> eventStartTurn
qtDisplayPlayerTurn - -> Vue_QT_2 : GAME_INFO
qtGameOver - -> Vue_QT_1

''' checkRound '''
checkRound - -> newRound : [si round gagné]
checkRound - -> qtGameOver : [si dernier round gagné]
checkRound - -> eventStartTurn : [si round non gagné]

''' EVENEMENTS DE JEU '''
Vue_QT_2 - -> eventChoiceEndTurn : [parfois forcé]
Vue_QT_2 - -> eventChoiceDraw
Vue_QT_2 - -> eventChoiceClaim
Vue_QT_2 - -> eventCardPicked : PARAMETRES

eventCardPicked - -> Vue_QT_3 : qtDisplayStonePicker(CHOSABLE)
Vue_QT_3 - -> eventStonePicked : PARAMETRES
eventStonePicked - -> Card::activate : [si eventCardPicked]
eventStonePicked - -> claimStone : [si eventChoiceClaim]
claimStone - -> Vue_QT_4 : qtDisplayAlert(RESULTAT)
eventChoiceClaim - -> Vue_QT_3 : qtDisplayStonePicker(CHOSABLE)

''' qtDisplayPlayerTurn '''
Card::activate - -> qtDisplayPlayerTurn
eventStartTurn - -> qtDisplayPlayerTurn
eventChoiceDraw - -> qtDisplayPlayerTurn
Vue_QT_4 - -> qtDisplayPlayerTurn : [bouton continuer]

''' QUITTER '''
eventChoiceEndTurn - -> checkRound : checkRound()
Vue_QT_2 - -> qtGameOver : [bouton quitter partie]
@end

@startuml Evenements


object Vue_QT_1 {
    Choix de la Version
    Paramétrage de la partie
    Affichage des informations sur la dernière partie (scores, victoire...)
}

object Vue_QT_2 {
    Le joueur peut piocher,
    choisir une carte à jouer,
    Revendiquer une borne,
    ou finir son tour.
    Certaines options peuvent être
    bloquées ou automatisées contextuellement
}
object Vue_QT_3 {
    CHOSABLE
    Choix d'une borne
    sur le plateau parmi
    les bornes listées CHOSABLE
}

object Vue_QT_4 {
    Affichage d'un message
    avec bouton "continuer"
}


object main {
    Création de l'instance QT
    QT crée l'objet superviseur
}

object eventFirstStart {
    Supervisor::getInstance().eventFirstStart();
    Initialisation la plus basique
}

object eventStartGame {
    PARAMETRES
    Supervisor::getInstance().eventStartGame(PARAMETRES);
    Supervisor::getInstance().setController(PARAMETRES);
}

object newRound {
    Controller::newRound()
}

object eventStartTurn {
    Initialise les variables pour un nouveau tour
}

object checkRound {
    vérifie l'état des bornes,
    l'état du jeu (scores, manches restantes),
    détermine si victoire.
}

object eventCardPicked {
    PARAMETRES
    Controller::getChosableStones() -> CHOSABLE;
    si une carte choisie, 
        1. stocke la carte choisie dans le controleur
        2. utilise une methode de la carte pour evaluer les bornes jouables 
        getPlayableStoones(Carte Sélectionnée) -> CHOSABLE
        : on veut sélectionner une borne sur laquelle lancer la carte.
}

object eventChoiceClaim {
    Controller::getUnclaimedStones() -> CHOSABLE;
}

object claimStone {
    tente de revendiquer la borne
    stocke un message de résultat pour
    le joueur (RESULTAT)
}

object eventStonePicked {
    Conserve la valeur de la carte
    et déclenche d'autres méthodes
    en fonction de l'état du contrôleur
}

object eventChoiceEndTurn {

}

object qtDisplayPlayerTurn {
    Controller::getHand() -> GAME_INFO;
    Controller::getBoard() -> GAME_INFO;
    Controller::getPickableCards() -> GAME_INFO;
}

object eventChoiceDraw {
    Controller::drawCard() / Deck::drawCard();
}

object qtGameOver {
    Controller::qtGameOver();
    indique à QT que la partie est terminée,
    QT retourne au menu principal.
}

main - -> eventFirstStart

eventFirstStart - -> Vue_QT_1 : qtDisplayMainMenu()
Vue_QT_1 - -> eventStartGame : PARAMETRES
eventStartGame - -> newRound : Controller::runGame(PARAMETRES)
newRound - -> eventStartTurn
qtDisplayPlayerTurn - -> Vue_QT_2 : GAME_INFO
qtGameOver - -> Vue_QT_1

checkRound - -> newRound : [si round gagné]
checkRound - -> qtGameOver : [si dernier round gagné]
checkRound - -> eventStartTurn : [si round non gagné]

Vue_QT_2 - -> eventChoiceEndTurn : [parfois forcé]
Vue_QT_2 - -> eventChoiceDraw
Vue_QT_2 - -> eventChoiceClaim
Vue_QT_2 - -> eventCardPicked : PARAMETRES

eventCardPicked - -> Vue_QT_3 : qtDisplayStonePicker(CHOSABLE)
Vue_QT_3 - -> eventStonePicked : PARAMETRES
eventStonePicked - -> Card::activate : [si eventCardPicked]
eventStonePicked - -> claimStone : [si eventChoiceClaim]
claimStone - -> Vue_QT_4 : qtDisplayAlert(RESULTAT)
eventChoiceClaim - -> Vue_QT_3 : qtDisplayStonePicker(CHOSABLE)

Card::activate - -> qtDisplayPlayerTurn
eventStartTurn - -> qtDisplayPlayerTurn
eventChoiceDraw - -> qtDisplayPlayerTurn
Vue_QT_4 - -> qtDisplayPlayerTurn : [bouton continuer]

eventChoiceEndTurn - -> checkRound : checkRound()
Vue_QT_2 - -> qtGameOver : [bouton quitter partie]
@end

PlantUML version 1.2022.7(Mon Aug 22 19:01:30 CEST 2022)
(GPL source distribution)
Java Runtime: Java(TM) SE Runtime Environment
JVM: Java HotSpot(TM) 64-Bit Server VM
Default Encoding: Cp1252
Language: fr
Country: FR
--></g></svg>